<svg width="20" height="12" viewBox="0 0 20 12" fill="none" xmlns="http://www.w3.org/2000/svg">
<path d="M10 0.0390625C13.8212 0.0390625 17.2865 2.12968 19.8435 5.52541C20.0522 5.80361 20.0522 6.19228 19.8435 6.47048C17.2865 9.8703 13.8212 11.9609 10 11.9609C6.17879 11.9609 2.71351 9.8703 0.15649 6.47457C-0.0521629 6.19637 -0.0521629 5.8077 0.15649 5.5295C2.71351 2.12968 6.17879 0.0390625 10 0.0390625ZM9.72589 10.1976C12.2625 10.3572 14.3572 8.26653 14.1976 5.72588C14.0667 3.63117 12.3688 1.9333 10.2741 1.80238C7.73755 1.64283 5.64284 3.73345 5.80239 6.2741C5.9374 8.36472 7.63527 10.0626 9.72589 10.1976ZM9.85272 8.25835C11.2192 8.34427 12.3484 7.21918 12.2584 5.85271C12.1888 4.72353 11.2724 3.81118 10.1432 3.73754C8.77672 3.65162 7.64754 4.77671 7.73755 6.14318C7.81119 7.27646 8.72763 8.1888 9.85272 8.25835Z" fill="#B5C3CB"/>
</svg>
